mastitorrents.com
  
http://mastitorrents.com/forums/index.php







----------------------------------------------------------------------------------------------------
----------------------------------------------------------------------------------------------------

LIKE US @ FACEBOOK


1. ---&gt; http://urlgator.com/efyQx   [MastiTorrentsReleasers]

2. ---&gt; http://urlgator.com/FG4tl   [MastiTorrents]


[OR]



Search for "MastiTorrentsReleasers" and "MastiTorrents" 



We are waiting for you!!!



----------------------------------------------------------------------------------------------------
----------------------------------------------------------------------------------------------------





****************************************************************************************************
****************************************************************************************************





   8b    d8    db    .dP"Y8 888888 88 888888  dP"Yb  88""Yb 88""Yb 888888 88b 88 888888 .dP"Y8 
   88b  d88   dPYb   `Ybo."   88   88   88   dP   Yb 88__dP 88__dP 88__   88Yb88   88   `Ybo." 
   88YbdP88  dP__Yb  o.`Y8b   88   88   88   Yb   dP 88"Yb  88"Yb  88""   88 Y88   88   o.`Y8b 
   88 YY 88 dP""""Yb 8bodP'   88   88   88    YbodP  88  Yb 88  Yb 888888 88  Y8   88   8bodP' 




****************************************************************************************************
****************************************************************************************************




====================================================================================================

                           MASTI TORRENTS RELEASERS [ MTR ]

                                Where Quality Matters!

====================================================================================================









description:


Movie Details
Starring:- Aziz Naser, Mast Ali, Adnan Sajid Khan (Gullu Dada)	
Directed By	:- Aziz Naser
Written By:- Aziz Naser
Screenplay By:- Aziz Naser
Produced By:- Aziz Naser
Banner:- An Aziz Naser Film
Source:- [--EXTREME--]
Ripper :- [--EXTREME--]

General
Complete name : Zabardast - [2011] - Hyderabad Movie - DVDRip - 1CD - X264 - AAC - [--EXTREME--] -1st On Net
Format : MPEG-4
Format profile : Base Media / Version 2
Codec ID : mp42
File size : 668 MiB
Duration : 1h 38mn
Overall bit rate : 947 Kbps
Encoded date : UTC 2011-09-03 02:26:53
Tagged date : UTC 2011-09-03 03:24:26

Video
ID : 1
Format : MPEG-4 Visual
Format profile : Advanced Simple@L5
Format settings, BVOP : Yes
Format settings, QPel : No
Format settings, GMC : No warppoints
Format settings, Matrix : Default (H.263)
Codec ID : 20
Duration : 1h 38mn
Bit rate mode : Variable
Bit rate : 859 Kbps
Maximum bit rate : 3 180 Kbps
Width : 576 pixels
Height : 272 pixels
Display aspect ratio : 2.2:1
Frame rate mode : Constant
Frame rate : 29.970 fps
Color space : YUV
Chroma subsampling : 4:2:0
Bit depth : 8 bits
Scan type : Progressive
Compression mode : Lossy
Bits/(Pixel*Frame) : 0.183
Stream size : 605 MiB (91%)
Writing library : em4v 4.1.6.5
Language : English
Encoded date : UTC 2011-09-03 02:26:53
Tagged date : UTC 2011-09-03 03:24:26
Material_Duration : 5912674
Material_StreamSize : 634831707
Material_FrameCount : 177203

Audio
ID : 2
Format : AAC
Format/Info : Advanced Audio Codec
Format profile : LC
Codec ID : 40
Duration : 1h 38mn
Bit rate mode : Variable
Bit rate : 80.7 Kbps
Maximum bit rate : 153 Kbps
Channel(s) : 2 channels
Channel positions : Front: L R
Sampling rate : 44.1 KHz
Compression mode : Lossy
Stream size : 56.9 MiB (9%)
Language : English
Encoded date : UTC 2011-09-03 02:26:53
Tagged date : UTC 2011-09-03 03:24:26
Material_Duration : 5912636
Material_StreamSize : 59615806

Credits : [--EXTREME--] 






Screens/Covers:
 
http://browseimage.net/out.php/i880_zabardast11.png
 
http://browseimage.net/out.php/i881_zabardast10.png
 
http://browseimage.net/out.php/i882_zabardast9.png
 
http://browseimage.net/out.php/i883_zabardast8.png
 
http://browseimage.net/out.php/i884_zabardast7.png
 
http://browseimage.net/out.php/i885_zabardast6.png
 
http://browseimage.net/out.php/i886_zabardast5.png
 
http://browseimage.net/out.php/i887_zabardast4.png
 
http://browseimage.net/out.php/i888_zabardast3.png
 
http://browseimage.net/out.php/i889_zabardast2.png
 
http://browseimage.net/out.php/i890_zabardast1.png
 
http://browseimage.net/out.php/i891_zabardast.png







****check out my other releases****

 
http://thepiratebay.org/user/tdkdemon/










****************************************************************************************************
****************************************************************************************************





    &lt;&lt;&lt;&lt;&lt;&lt;&lt;SUPERFAST RELEASES BROUGHT TO YOU BY&gt;&gt;&gt;&gt;&gt;&gt;

          


                                  Masti Torrents Releasers [ MTR ]





            8888b.  888888 8b    d8  dP"Yb  88b 88     88888 8b    d8 888888 88""Yb 88888 
             8I  Yb 88__   88b  d88 dP   Yb 88Yb88     88    88b  d88   88   88__dP    88 
             8I  dY 88""   88YbdP88 Yb   dP 88 Y88     88    88YbdP88   88   88"Yb     88 
            8888Y"  888888 88 YY 88  YbodP  88  Y8     88888 88 YY 88   88   88  Yb 88888 





****************************************************************************************************
****************************************************************************************************
